<?xml version="1.0" standalone="no"?>
<!DOCTYPE svg PUBLIC "-//W3C//DTD SVG 20010904//EN"
 "http://www.w3.org/TR/2001/REC-SVG-20010904/DTD/svg10.dtd">
<svg version="1.0" xmlns="http://www.w3.org/2000/svg"
 width="567.000000pt" height="851.000000pt" viewBox="0 0 567.000000 851.000000"
 preserveAspectRatio="xMidYMid meet">

<g transform="translate(0.000000,851.000000) scale(0.100000,-0.100000)"
fill="#000000" stroke="none">
<path d="M10 4255 l0 -4245 2825 0 2825 0 0 4245 0 4245 -2825 0 -2825 0 0
-4245z m2935 2033 c54 -46 112 -94 129 -108 17 -13 65 -54 107 -90 42 -36 111
-94 154 -130 180 -149 218 -184 251 -235 63 -95 79 -191 48 -295 -30 -102 -95
-172 -197 -211 l-42 -17 -3 -251 -2 -251 -550 0 -550 0 0 248 0 248 -55 23
c-152 63 -240 223 -205 372 25 107 66 163 204 277 45 37 140 116 211 177 72
61 144 122 161 135 17 14 75 62 129 108 54 45 101 82 105 82 4 0 51 -37 105
-82z m-2217 -1926 c46 -48 322 -344 396 -427 l46 -50 0 245 0 245 39 3 38 2
-5 -347 c-2 -192 -6 -349 -7 -351 -2 -2 -20 -5 -40 -6 -33 -3 -42 2 -79 42
-22 25 -48 53 -56 62 -8 9 -39 45 -69 81 -30 35 -62 71 -70 80 -9 9 -60 64
-115 122 -54 59 -103 107 -108 107 -5 0 -8 -101 -7 -247 l1 -248 -42 -1 -42
-2 7 92 c4 50 8 208 10 351 1 143 3 261 4 263 0 1 19 2 41 2 25 0 46 -7 58
-18z m928 -338 l1 -354 -76 0 -77 0 3 353 c2 193 3 353 3 354 0 2 33 2 73 1
l73 -1 0 -353z m620 345 c84 -21 139 -119 115 -207 -7 -26 -20 -55 -29 -66
-23 -26 -88 -66 -107 -66 -8 0 -15 -5 -15 -10 0 -12 72 -132 152 -253 32 -49
58 -90 58 -93 0 -2 -39 -4 -87 -3 -75 1 -89 4 -105 23 -9 11 -17 24 -18 28 0
18 -153 278 -163 278 -7 0 -8 -53 -4 -165 l6 -165 -77 0 -77 0 0 355 0 355
153 0 c84 0 173 -5 198 -11z m553 -91 c156 -327 183 -380 196 -382 10 -1 212
392 233 454 10 27 15 30 55 30 l44 0 22 -202 c12 -112 31 -264 42 -338 26
-187 33 -169 -61 -168 -67 0 -80 3 -80 17 0 18 -25 290 -36 389 -4 34 -10 62
-14 62 -3 0 -58 -106 -120 -235 -77 -159 -119 -235 -130 -235 -10 0 -52 76
-128 233 -79 162 -116 227 -121 217 -11 -20 -29 -184 -37 -332 l-7 -118 -44 0
-44 0 6 48 c3 26 10 70 15 97 5 28 23 151 40 275 43 319 33 286 80 288 l39 3
50 -103z m1144 40 c14 -35 47 -117 72 -183 49 -127 79 -201 100 -250 17 -38
85 -208 85 -212 0 -2 -37 -3 -82 -1 l-83 3 -36 105 -36 105 -120 2 c-66 1
-124 -2 -129 -5 -11 -7 -64 -162 -64 -185 0 -22 -82 -38 -93 -19 -3 4 3 25 14
47 47 101 146 335 206 488 l67 167 36 0 c36 0 38 -2 63 -62z m674 -66 c114
-121 197 -211 291 -315 23 -26 45 -47 48 -47 3 0 4 109 3 243 l-1 242 38 0 39
0 -3 -105 c-2 -58 -7 -215 -10 -350 l-7 -245 -36 -3 c-32 -3 -40 2 -75 45 -21
26 -46 55 -55 63 -9 8 -45 49 -80 90 -35 41 -96 109 -136 150 -39 41 -86 92
-104 113 -18 20 -36 37 -41 37 -4 0 -8 -111 -8 -247 l0 -248 -42 -3 -41 -3 6
122 c4 67 7 226 7 353 l0 232 44 2 44 1 119 -127z m433 -817 l0 -45 -2225 0
-2225 0 0 45 0 45 2225 0 2225 0 0 -45z m-1912 -297 c3 -24 0 -28 -22 -28 -30
0 -40 13 -31 41 10 31 49 21 53 -13z m912 -36 l0 -59 30 5 c25 4 30 1 30 -17
0 -17 -6 -21 -30 -21 l-30 0 0 -135 c0 -128 -1 -135 -20 -135 -19 0 -20 7 -20
135 l0 135 -31 0 c-24 0 -30 4 -27 17 2 10 10 18 18 19 8 1 21 2 28 2 8 1 12
20 12 57 0 48 2 55 20 55 18 0 20 -7 20 -58z m-3226 -77 l36 -24 0 25 c0 19 5
25 18 22 15 -3 17 -20 20 -156 2 -147 2 -152 -18 -152 -13 0 -20 7 -20 19 0
19 -2 19 -42 -4 -113 -65 -238 7 -238 136 0 98 60 159 156 159 38 0 61 -6 88
-25z m477 6 c20 -16 22 -22 11 -33 -10 -10 -16 -10 -32 0 -44 27 -98 4 -86
-36 4 -10 23 -28 44 -39 43 -25 79 -61 82 -83 12 -89 -66 -138 -150 -95 -33
17 -36 25 -18 43 8 8 18 7 39 -5 42 -25 83 -9 87 33 3 29 -2 34 -51 62 -77 44
-96 101 -49 155 21 24 93 23 123 -2z m409 -1 c19 -14 22 -22 13 -30 -8 -9 -20
-9 -47 1 -27 10 -42 10 -54 3 -39 -25 -21 -58 58 -108 72 -45 62 -142 -17
-162 -57 -15 -135 28 -106 57 8 8 17 7 34 -5 31 -21 62 -20 83 3 25 27 17 52
-23 76 -90 54 -116 113 -69 162 28 29 92 31 128 3z m519 -16 c69 -61 78 -151
24 -222 -92 -121 -281 -57 -284 96 -3 98 61 162 162 162 53 0 63 -3 98 -36z
m549 22 c15 -8 35 -23 45 -34 16 -17 16 -20 2 -32 -13 -11 -19 -9 -39 9 -66
62 -191 29 -212 -56 -10 -37 4 -86 31 -115 42 -46 136 -50 180 -8 13 12 29 18
38 14 23 -8 21 -16 -5 -42 -73 -68 -217 -50 -269 34 -17 28 -21 46 -17 93 5
67 31 110 80 134 41 20 130 22 166 3z m352 -141 c0 -148 -1 -155 -20 -155 -19
0 -20 7 -20 148 0 82 3 152 7 155 3 4 12 7 20 7 10 0 13 -32 13 -155z m499
130 l30 -26 3 23 c2 13 11 24 21 26 16 3 17 -9 17 -152 0 -149 -1 -156 -20
-156 -13 0 -20 7 -20 20 0 20 0 20 -29 -1 -36 -26 -110 -36 -151 -19 -63 26
-109 114 -96 184 7 39 57 103 90 116 12 5 44 9 73 9 41 1 58 -4 82 -24z m949
5 c39 -24 72 -75 72 -112 l0 -28 -135 0 c-122 0 -135 -2 -135 -17 0 -26 35
-80 61 -93 37 -20 106 -6 142 28 31 29 57 33 57 8 0 -14 -45 -59 -77 -75 -32
-16 -103 -13 -143 7 -53 26 -80 74 -80 141 0 99 60 161 155 161 32 0 62 -7 83
-20z m463 1 c20 -16 22 -22 11 -33 -10 -10 -16 -10 -32 0 -43 27 -99 4 -86
-35 3 -10 31 -33 61 -52 60 -38 76 -68 63 -118 -16 -60 -88 -82 -149 -46 -33
20 -35 26 -14 43 13 10 19 10 33 -4 34 -30 92 -12 92 29 0 27 -12 40 -68 74
-63 37 -78 88 -41 135 16 21 29 26 64 26 27 0 51 -7 66 -19z"/>
<path d="M2668 6067 c-86 -73 -196 -163 -244 -202 -134 -107 -196 -168 -234
-231 -30 -50 -35 -67 -35 -119 1 -124 85 -205 214 -205 122 0 202 74 186 172
-4 21 -19 51 -35 68 -23 25 -36 30 -74 30 -45 0 -46 0 -46 -33 0 -58 -59 -87
-106 -53 -31 23 -26 97 10 135 41 43 76 54 155 49 58 -3 78 -9 113 -33 108
-75 123 -251 30 -348 -32 -34 -107 -74 -159 -85 l-38 -8 -3 -202 -2 -202 440
0 440 0 0 200 0 199 -42 12 c-144 38 -218 122 -220 248 -2 145 90 228 241 219
64 -3 74 -7 106 -38 42 -41 53 -86 31 -129 -14 -25 -23 -31 -51 -31 -43 0 -65
22 -65 66 0 34 0 34 -46 34 -120 0 -152 -157 -48 -236 31 -24 48 -29 109 -32
102 -6 169 30 213 113 25 46 21 140 -7 194 -28 54 -125 151 -250 251 -52 41
-163 132 -248 203 -84 70 -159 127 -166 126 -6 0 -83 -60 -169 -132z"/>
<path d="M2077 4324 c-4 -4 -7 -71 -7 -149 l0 -142 53 9 c81 15 117 59 117
146 0 62 -16 109 -43 124 -25 13 -110 22 -120 12z"/>
<path d="M3846 4140 c-14 -30 -39 -88 -55 -127 l-29 -73 99 0 c54 0 100 3 102
8 2 4 -17 61 -43 127 l-48 120 -26 -55z"/>
<path d="M692 2982 c-55 -51 -55 -127 0 -181 55 -54 149 -36 183 35 19 40 19
65 1 109 -29 68 -129 88 -184 37z"/>
<path d="M2098 2994 c-78 -42 -75 -169 4 -210 70 -36 153 5 168 84 18 102 -82
176 -172 126z"/>
<path d="M3501 2985 c-110 -93 2 -266 129 -200 43 22 60 53 60 108 0 42 -5 54
-34 83 -29 29 -41 34 -79 34 -34 0 -53 -6 -76 -25z"/>
<path d="M4449 2981 c-52 -53 -42 -61 72 -60 117 1 134 13 81 61 -46 40 -112
40 -153 -1z"/>
</g>
</svg>
